# xmcd CD database file
#
# Track frame offsets:
#	150
#	13935
#	27894
#	40817
#	57097
#	64071
#	79150
#	97372
#	115047
#	132446
#	156944
#	185983
#	227368
#
# Disc length: 3213 seconds
#
# Revision: 0
# Processed by: cddbd v1.5.2PL0 Copyright (c) Steve Scherf et al.
# Submitted via: CDex 1.70beta2
#
DISCID=af0c8b0d
DTITLE=Morton Feldman Trio (Aki Takahashi, Rohan de Saram, Marc Sabat) - Morton Feldman Trio
DYEAR=2009
DGENRE=New Age
TTITLE0=Beginning
TTITLE1=P5 S2 M2 B1
TTITLE2=P9 S1 M9 B1
TTITLE3=P11 S3 M8 B1
TTITLE4=P15 S2 M6 B1
TTITLE5=P16 S1 M4 B1
TTITLE6=P17 S1 M8 B1
TTITLE7=P21 S1 M8 B1
TTITLE8=P23 S1 M1 B1
TTITLE9=P27 S1 M1 B1
TTITLE10=P29 S1 M2 B1
TTITLE11=P31 S4 M2 B1
TTITLE12=P35 S4 M9 B1
EXTD=YEAR: 2009
EXTT0=
EXTT1=
EXTT2=
EXTT3=
EXTT4=
EXTT5=
EXTT6=
EXTT7=
EXTT8=
EXTT9=
EXTT10=
EXTT11=
EXTT12=
PLAYORDER=
